<?xml version="1.0" encoding="utf-8"?>
<!-- Generator: Adobe Illustrator 16.0.0, SVG Export Plug-In . SVG Version: 6.00 Build 0)  -->
<!DOCTYPE svg PUBLIC "-//W3C//DTD SVG 1.1//EN" "http://www.w3.org/Graphics/SVG/1.1/DTD/svg11.dtd">
<svg version="1.1" id="Layer_1" xmlns="http://www.w3.org/2000/svg" xmlns:xlink="http://www.w3.org/1999/xlink" x="0px" y="0px"
	 width="1185px" height="268.75px" viewBox="0 0 1185 268.75" enable-background="new 0 0 1185 268.75" xml:space="preserve">
<linearGradient id="SVGID_1_" gradientUnits="userSpaceOnUse" x1="595.667" y1="10.3633" x2="595.667" y2="262.9438">
	<stop  offset="0" style="stop-color:#6E3CBC"/>
	<stop  offset="0.1444" style="stop-color:#743FB8"/>
	<stop  offset="0.3335" style="stop-color:#8449AC"/>
	<stop  offset="0.5472" style="stop-color:#9F5A98"/>
	<stop  offset="0.7773" style="stop-color:#C5707D"/>
	<stop  offset="1" style="stop-color:#F08A5D"/>
</linearGradient>
<path fill="url(#SVGID_1_)" d="M107.738,217.402l10.92-54.6H64.859l-10.92,54.6h-39.6l28-140h39.6l-10.52,52.6h53.799l10.52-52.6
	h39.602l-28,140H107.738z M286.898,129.902c-4.334-7.131-10.469-12.699-18.4-16.699c-7.934-4-17.434-6-28.5-6
	c-13.068,0-24.533,2.734-34.398,8.199c-9.869,5.469-17.535,12.9-23,22.301c-5.469,9.4-8.201,20.1-8.201,32.1
	c0,10,2.4,18.699,7.201,26.1c4.799,7.4,11.5,13.135,20.1,17.201c8.6,4.068,18.699,6.1,30.299,6.1c8.133,0,16.166-1.068,24.102-3.201
	c7.93-2.131,15.299-5.73,22.1-10.799l-15.801-23.801c-3.469,2.801-7.5,4.969-12.1,6.5c-4.6,1.535-9.301,2.301-14.1,2.301
	c-8.27,0-14.469-1.766-18.6-5.301c-3.313-2.828-5.273-6.943-5.932-12.299h79.531c0.666-2.801,1.199-5.666,1.6-8.602
	c0.4-2.93,0.6-6,0.6-9.199C293.398,145.338,291.23,137.037,286.898,129.902z M213.855,152.604c0.146-0.436,0.285-0.871,0.443-1.301
	c1.932-5.266,4.865-9.432,8.801-12.5c3.93-3.066,8.965-4.6,15.1-4.6c4.799,0,8.83,0.969,12.1,2.9c3.266,1.934,5.6,4.668,7,8.199
	c0.844,2.131,1.23,4.566,1.178,7.301H213.855z M343.816,166.203c1.73-9.066,5.23-15.566,10.5-19.5
	c5.266-3.932,12.031-5.9,20.299-5.9c1.467,0,2.867,0.035,4.201,0.1c1.33,0.068,2.799,0.234,4.4,0.5l6.6-34.199
	c-10.535,0-19.734,1.799-27.6,5.4c-4.328,1.979-8.188,4.73-11.584,8.242l2.383-11.844h-36l-21.6,108.4h38L343.816,166.203z
	 M497.295,129.902c-4.334-7.131-10.469-12.699-18.4-16.699c-7.934-4-17.434-6-28.5-6c-13.068,0-24.535,2.734-34.4,8.199
	c-9.869,5.469-17.533,12.9-23,22.301c-5.469,9.4-8.199,20.1-8.199,32.1c0,10,2.4,18.699,7.199,26.1
	c4.801,7.4,11.5,13.135,20.1,17.201c8.602,4.068,18.701,6.1,30.301,6.1c8.131,0,16.166-1.068,24.1-3.201
	c7.932-2.131,15.301-5.73,22.1-10.799l-15.799-23.801c-3.469,2.801-7.5,4.969-12.1,6.5c-4.602,1.535-9.301,2.301-14.102,2.301
	c-8.268,0-14.469-1.766-18.6-5.301c-3.313-2.828-5.273-6.943-5.931-12.299h79.53c0.666-2.801,1.201-5.666,1.602-8.602
	c0.398-2.93,0.6-6,0.6-9.199C503.795,145.338,501.625,137.037,497.295,129.902z M424.252,152.604
	c0.145-0.436,0.285-0.871,0.443-1.301c1.93-5.266,4.865-9.432,8.799-12.5c3.932-3.066,8.967-4.6,15.1-4.6
	c4.801,0,8.832,0.969,12.102,2.9c3.266,1.934,5.6,4.668,7,8.199c0.843,2.131,1.229,4.566,1.178,7.301H424.252z M814.842,101.713
	c-7.209-4.291-16.18-6.439-26.91-6.439c-11.039,0-21.045,2.148-30.016,6.439c-4.773,2.285-9.096,5.271-12.979,8.943l12.633-62.994
	h-22.08l-34.039,170.66h22.08l12.879-64.4c2.607-13.186,7.82-22.959,15.642-29.324c7.819-6.361,17.63-9.545,29.438-9.545
	c11.5,0,19.472,3.068,23.92,9.199c4.445,6.135,5.521,14.721,3.222,25.762l-13.571,68.309h22.08l13.57-68.309
	c2.301-11.5,2.031-21.352-0.805-29.557C827.067,112.256,822.047,106.008,814.842,101.713z M966.252,119.652
	c-4.525-7.82-10.851-13.836-18.977-18.055c-8.129-4.215-17.71-6.324-28.75-6.324c-13.189,0-24.955,3.104-35.305,9.314
	c-10.35,6.209-18.516,14.684-24.496,25.414c-5.979,10.734-8.969,23-8.969,36.801c0,10.734,2.375,20.049,7.129,27.945
	c4.752,7.898,11.5,14.029,20.242,18.4c8.738,4.369,19.089,6.555,31.049,6.555c9.35,0,18.398-1.496,27.14-4.486
	c8.741-2.988,16.021-7.32,21.851-12.994l-9.432-15.869c-4.293,4.293-9.738,7.705-16.33,10.234
	c-6.594,2.529-13.725,3.795-21.389,3.795c-13.035,0-22.734-3.025-29.096-9.086c-6.364-6.055-9.543-14.604-9.543-25.645
	c0-0.467,0.023-0.918,0.031-1.379h100.018c0.459-2.451,0.84-5.096,1.148-7.936c0.307-2.836,0.461-5.635,0.461-8.395
	C973.035,136.902,970.771,127.473,966.252,119.652z M952.484,148.172h-78.982c0.914-3.463,2.115-6.727,3.625-9.773
	c3.83-7.742,9.234-13.801,16.213-18.17c6.977-4.371,15.064-6.557,24.266-6.557c7.82,0,14.526,1.574,20.125,4.717
	c5.596,3.145,9.695,7.668,12.305,13.568C952.061,136.549,952.867,141.961,952.484,148.172z M1017.01,47.662l-34.041,170.66h22.081
	l34.04-170.66H1017.01z M1169.982,119.537c-4.68-7.895-11.041-13.914-19.092-18.055c-8.049-4.141-17.289-6.209-27.715-6.209
	c-13.494,0-25.109,3.219-34.846,9.66c-2.963,1.959-5.713,4.152-8.258,6.574l3.084-15.086h-21.162l-33.118,166.521h22.08
	l12.978-65.467c0.047,0.086,0.086,0.176,0.133,0.262c3.985,7.129,9.693,12.574,17.135,16.33c7.436,3.758,16.367,5.635,26.793,5.635
	c9.813,0,18.938-1.801,27.371-5.406c8.432-3.6,15.756-8.625,21.965-15.064c6.211-6.439,11.041-14.029,14.492-22.77
	c3.449-8.74,5.172-18.32,5.172-28.75C1176.994,136.828,1174.656,127.438,1169.982,119.537z M1148.475,175.428
	c-4.139,7.744-9.773,13.84-16.902,18.285c-7.131,4.449-15.297,6.67-24.497,6.67c-11.653,0-20.624-3.066-26.909-9.199
	c-6.289-6.131-9.43-14.49-9.43-25.07c0-10.121,2.031-19.051,6.094-26.795c4.063-7.742,9.736-13.801,17.02-18.17
	c7.281-4.371,15.447-6.557,24.494-6.557c11.654,0,20.623,3.031,26.912,9.086c6.285,6.059,9.43,14.453,9.43,25.186
	C1154.686,158.832,1152.615,167.688,1148.475,175.428z M615.59,201.859c-5.978,5.607-11.43,9.572-15.425,10.598L598.053,213
	l-2.103-0.566c-1.513-0.406-5.735-1.541-13.974-10.707c-9.793,1.541-16.528,4.402-16.791,7.678
	c-0.393,4.91,13.879,8.889,31.873,8.889c17.993,0,32.903-3.979,33.295-8.889C630.607,206.221,624.688,203.43,615.59,201.859z
	 M615.084,10.363c-35.512,0.605-66.482,28.342-69.468,62.479c-5.128,58.602,30.843,113.145,46.942,127.822
	c2.322,2.115,4.232,3.406,5.543,3.758c1.375-0.354,3.512-1.643,6.203-3.76c18.672-14.686,64.182-69.223,69.309-127.82
	C676.601,38.705,650.483,10.969,615.084,10.363z M653.107,75.627c-2.113,24.154-23.408,43.736-47.564,43.736
	c-24.154,0-42.022-19.582-39.909-43.736c2.112-24.156,23.407-43.736,47.563-43.736C637.354,31.891,655.221,51.471,653.107,75.627z
	 M623.313,44.561c-3.188-1.439-7.063-2.17-11.509-2.17c-5.011,0-9.691,0.906-13.911,2.689c-4.232,1.785-7.898,5.182-8.053,5.324
	c-0.797,0.742-1.246,1.701-1.264,2.695c-0.02,0.994,0.396,1.891,1.166,2.527l2.755,2.271c0.671,0.555,1.572,0.859,2.534,0.859
	c1.153,0,2.298-0.436,3.14-1.197c0.018-0.014,1.642-1.461,3.935-2.418c2.349-0.984,4.962-1.484,7.77-1.484
	c3.469,0,6.049,0.709,7.666,2.105c1.592,1.375,2.259,3.271,2.037,5.797c-0.088,1.014-0.336,2.119-0.738,3.289
	c-0.389,1.135-1.111,2.398-2.148,3.756c-1.045,1.355-2.449,2.672-2.463,2.686c-1.283,1.195-3.406,3.117-4.734,4.283l-21.061,18.465
	c-1.499,1.314-2.804,3.838-2.971,5.746l-0.115,1.34c-0.188,2.121,1.387,3.848,3.508,3.848h38.215c2.121,0,3.999-1.727,4.185-3.848
	l0.288-3.316c0.186-2.119-1.389-3.848-3.511-3.848h-22.261c-0.459,0-0.687-0.084-0.768-0.137c0.037-0.094,0.167-0.318,0.527-0.635
	l12.627-11.072c1.342-1.174,3.478-3.125,4.764-4.348c0.121-0.115,3.021-2.877,4.665-5.029c1.663-2.176,2.867-4.291,3.581-6.293
	c0.703-1.971,1.149-3.99,1.324-6.002c0.325-3.693-0.32-6.936-1.914-9.635C628.99,48.121,626.547,46.02,623.313,44.561z"/>
</svg>
