<?xml version="1.0" encoding="utf-8"?>
<!-- Generator: Adobe Illustrator 16.0.0, SVG Export Plug-In . SVG Version: 6.00 Build 0)  -->
<!DOCTYPE svg PUBLIC "-//W3C//DTD SVG 1.1//EN" "http://www.w3.org/Graphics/SVG/1.1/DTD/svg11.dtd">
<svg version="1.1" id="Layer_1" xmlns="http://www.w3.org/2000/svg" xmlns:xlink="http://www.w3.org/1999/xlink" x="0px" y="0px"
	 width="1000px" height="1000px" viewBox="0 0 1000 1000" enable-background="new 0 0 1000 1000" xml:space="preserve">
<g>
	<path fill="#6E3CBC" d="M526.578,880.982c-26.021,24.414-49.746,41.668-67.132,46.13l-9.188,2.357l-9.159-2.461
		c-6.586-1.77-24.954-6.71-60.815-46.602c-42.629,6.708-71.938,19.159-73.08,33.417c-1.705,21.365,60.403,38.687,138.724,38.687
		c78.301,0,143.199-17.321,144.911-38.687C591.944,899.967,566.181,887.813,526.578,880.982z"/>
	<path fill="#6E3CBC" d="M524.363,47.489C369.82,50.13,235.022,170.863,222.028,319.449
		c-22.313,255.057,134.243,492.444,204.321,556.334c10.101,9.207,18.402,14.821,24.118,16.355
		c5.982-1.537,15.282-7.156,26.996-16.37c81.27-63.913,279.34-301.283,301.654-556.319
		C792.112,170.863,678.445,50.13,524.363,47.489z M689.871,331.563c-9.199,105.133-101.882,190.359-207.011,190.359
		c-105.133,0-182.904-85.227-173.707-190.359c9.199-105.137,101.879-190.361,207.009-190.361
		C621.298,141.202,699.07,226.427,689.871,331.563z"/>
	<path fill="#6E3CBC" d="M560.195,196.35c-13.888-6.268-30.744-9.449-50.099-9.449c-21.807,0-42.178,3.939-60.536,11.703
		c-18.423,7.777-34.385,22.557-35.057,23.182c-3.466,3.236-5.415,7.399-5.498,11.731c-0.08,4.325,1.723,8.229,5.077,11l11.991,9.888
		c2.92,2.41,6.84,3.739,11.023,3.739c5.028,0,10.001-1.898,13.668-5.207c0.071-0.058,7.151-6.362,17.13-10.526
		c10.213-4.289,21.59-6.458,33.806-6.458c15.112,0,26.333,3.083,33.357,9.163c6.94,5.981,9.841,14.233,8.881,25.233
		c-0.385,4.408-1.462,9.222-3.216,14.31c-1.687,4.941-4.836,10.439-9.354,16.345c-4.542,5.906-10.654,11.633-10.719,11.693
		c-5.571,5.204-14.823,13.568-20.6,18.643l-91.662,80.359c-6.526,5.723-12.206,16.714-12.931,25.017l-0.508,5.832
		c-0.811,9.231,6.037,16.746,15.277,16.746h166.309c9.241,0,17.411-7.515,18.22-16.746l1.262-14.433
		c0.807-9.232-6.048-16.746-15.283-16.746h-96.883c-2.001,0-2.994-0.376-3.338-0.6c0.146-0.41,0.724-1.385,2.287-2.761
		l54.968-48.191c5.826-5.117,15.12-13.603,20.725-18.92c0.53-0.508,13.147-12.524,20.304-21.896
		c7.232-9.464,12.472-18.68,15.576-27.388c3.071-8.579,5.011-17.369,5.775-26.125c1.409-16.075-1.396-30.186-8.336-41.938
		C584.911,211.852,574.273,202.698,560.195,196.35z"/>
</g>
</svg>
